<?xml version="1.0" encoding="UTF-8"?>
<svg version="1.1" xmlns="http://www.w3.org/2000/svg" width="1254" height="1254">
<path d="M0 0 C413.82 0 827.64 0 1254 0 C1254 413.82 1254 827.64 1254 1254 C840.18 1254 426.36 1254 0 1254 C0 840.18 0 426.36 0 0 Z " fill="#1E1E1B" transform="translate(0,0)"/>
<path d="M0 0 C99 0 198 0 300 0 C300 25.74 300 51.48 300 78 C229.05 78 158.1 78 85 78 C85 122.55 85 167.1 85 213 C150.67 213 216.34 213 284 213 C284 238.74 284 264.48 284 291 C218.33 291 152.66 291 85 291 C85 359.97 85 428.94 85 500 C56.95 500 28.9 500 0 500 C0 335 0 170 0 0 Z " fill="#DEDDDD" transform="translate(482,358)"/>
<path d="M0 0 C10.209375 0.061875 10.209375 0.061875 20.625 0.125 C20.625 20.915 20.625 41.705 20.625 63.125 C3.4375 63.3125 3.4375 63.3125 -1.89916992 63.33276367 C-14.26515127 63.50461564 -25.03824032 65.29293004 -34.375 74.125 C-35.035 74.125 -35.695 74.125 -36.375 74.125 C-36.6534375 74.69605469 -36.931875 75.26710938 -37.21875 75.85546875 C-38.74281532 78.84696182 -40.45297341 81.72082679 -42.15625 84.61328125 C-44.72147106 89.89993876 -45.62482094 94.96343681 -45.64001465 100.80166626 C-45.64828781 102.10510986 -45.65656097 103.40855347 -45.66508484 104.75149536 C-45.66426039 106.17889415 -45.6632628 107.60629285 -45.66210938 109.03369141 C-45.66813979 110.55056117 -45.67506561 112.0674276 -45.68281555 113.58428955 C-45.69766591 116.84231161 -45.70644419 120.10027279 -45.71052551 123.35832596 C-45.71726576 128.5208771 -45.73905372 133.68329895 -45.76306152 138.84579468 C-45.81196084 149.81383271 -45.84429305 160.78189825 -45.875 171.75 C-45.90814462 183.57250982 -45.944271 195.39496882 -45.99913073 207.21740091 C-46.02233171 212.33774642 -46.03618338 217.45800234 -46.04262543 222.57839513 C-46.04861228 225.78030915 -46.06275031 228.98215167 -46.07896996 232.18402863 C-46.08478933 233.65566695 -46.08733013 235.12732298 -46.08613014 236.59897232 C-46.07240582 260.16632968 -51.25554017 282.19291015 -67.375 300.125 C-68.15230469 301.04152344 -68.15230469 301.04152344 -68.9453125 301.9765625 C-75.2534159 308.91864615 -84.57358227 314.98638122 -93.375 318.125 C-92.28703125 318.71925781 -91.1990625 319.31351563 -90.078125 319.92578125 C-68.521701 331.9639121 -55.06554774 347.65687389 -47.953125 371.640625 C-46.67726629 377.12336916 -46.25023048 382.48755281 -46.25042725 388.1053772 C-46.2490171 388.7718884 -46.24760695 389.43839961 -46.24615407 390.12510812 C-46.24252913 392.33944934 -46.24582544 394.55372538 -46.24902344 396.76806641 C-46.24762719 398.36374969 -46.24572691 399.9594326 -46.24336243 401.55511475 C-46.23887804 404.9833773 -46.23700962 408.41162793 -46.23690033 411.83989334 C-46.23575555 417.27125298 -46.22288412 422.70254533 -46.20733643 428.13388062 C-46.20476357 429.05252384 -46.20219072 429.97116706 -46.1995399 430.91764796 C-46.19427362 432.79577769 -46.18898814 434.67390737 -46.18368387 436.552037 C-46.1486495 449.18818502 -46.12201889 461.82424852 -46.12451172 474.46044922 C-46.12610491 482.99544681 -46.10995864 491.53021359 -46.07380509 500.06513727 C-46.0554218 504.57432172 -46.04593524 509.08312116 -46.05828094 513.59233475 C-46.0697969 517.83942153 -46.05783088 522.08582112 -46.02864647 526.33281708 C-46.0220581 527.88185514 -46.02378201 529.43095717 -46.03494453 530.97996902 C-46.11582341 543.23049766 -44.10949808 554.6813408 -36.1015625 564.4140625 C-28.38063167 572.06512065 -19.20273602 575.54855314 -8.5 575.63671875 C-7.42105469 575.66167419 -7.42105469 575.66167419 -6.3203125 575.68713379 C-3.67216245 575.74430721 -1.02352964 575.77702862 1.625 575.8125 C7.565 575.915625 13.505 576.01875 19.625 576.125 C19.625 596.915 19.625 617.705 19.625 639.125 C8.36375 639.2796875 8.36375 639.2796875 -3.125 639.4375 C-5.44885742 639.48302002 -7.77271484 639.52854004 -10.16699219 639.57543945 C-38.09529062 639.89298881 -61.40012809 631.61144362 -82 612.4921875 C-95.21567243 599.31998768 -101.4508184 584.97916945 -105.375 567.125 C-105.87939606 565.31830589 -105.87939606 565.31830589 -106.39398193 563.47511292 C-107.95227705 556.40021352 -107.65075909 549.18383939 -107.63037109 541.97949219 C-107.63312498 540.35395635 -107.63680729 538.72842186 -107.64134216 537.10289001 C-107.64942183 533.61626108 -107.65163076 530.12969614 -107.64939499 526.64305878 C-107.64654794 521.11910322 -107.66096625 515.59527411 -107.67837524 510.0713501 C-107.72526778 494.36806124 -107.74933228 478.6647816 -107.75585938 462.96142578 C-107.75962095 454.27775564 -107.77773671 445.5942294 -107.81095374 436.91062093 C-107.83106433 431.4305667 -107.83358914 425.95088619 -107.82267356 420.47081041 C-107.82004891 417.04705073 -107.83415526 413.62350443 -107.85275459 410.19980049 C-107.85803425 408.62495519 -107.85665311 407.05006952 -107.84771919 405.47524071 C-107.76707191 389.9978975 -110.84464777 376.74042638 -121.37109375 364.875 C-132.81619004 353.78690671 -148.01959753 350.52094568 -163.375 349.125 C-163.375 329.325 -163.375 309.525 -163.375 289.125 C-156.775 288.135 -150.175 287.145 -143.375 286.125 C-131.87545187 282.46030884 -123.89900594 276.5171532 -116.375 267.125 C-115.6325 266.2175 -114.89 265.31 -114.125 264.375 C-108.47346075 253.87928425 -107.79800542 243.20014404 -107.87670898 231.54125977 C-107.87287652 229.91675318 -107.86724963 228.29225 -107.85998535 226.66775513 C-107.84811645 223.19530535 -107.84846031 219.72315842 -107.85857964 216.25070381 C-107.87426722 210.74710027 -107.86037494 205.24380179 -107.84254456 199.74021912 C-107.81184169 189.04726721 -107.81021851 178.35441058 -107.81219482 167.66142273 C-107.81359109 154.05491555 -107.80305945 140.44848189 -107.7636171 126.84202808 C-107.74878241 121.38401994 -107.74887902 115.92628706 -107.76109493 110.46827519 C-107.7658424 107.05872173 -107.75823026 103.64927128 -107.74755096 100.23973465 C-107.74516743 98.67336001 -107.74779888 97.10696732 -107.75615883 95.54061317 C-107.8903282 68.77634211 -98.90108965 45.42938102 -80.625 25.9375 C-57.75532995 4.25705279 -30.40497281 -0.26145361 0 0 Z " fill="#B4D12F" transform="translate(406.375,288.875)"/>
<path d="M0 0 C9.838125 -0.0928125 9.838125 -0.0928125 19.875 -0.1875 C22.91823486 -0.22846802 22.91823486 -0.22846802 26.02294922 -0.27026367 C44.66158212 -0.41700438 62.63317339 1.64988728 79.3125 10.5 C80.13282715 10.93505859 80.9531543 11.37011719 81.79833984 11.81835938 C89.42372122 16.00343852 95.76637863 20.96718156 102 27 C102.81726563 27.77730469 103.63453125 28.55460937 104.4765625 29.35546875 C121.40638667 46.72162859 127.32180483 69.78743186 127.25537109 93.35083008 C127.25812567 94.9863655 127.26180838 96.62189957 127.26634216 98.25743103 C127.27441534 101.76259484 127.27663244 105.26769502 127.27439499 108.7728672 C127.27154571 114.32630683 127.28597411 119.8796209 127.30337524 125.43302917 C127.35024786 141.21908698 127.37433419 157.00513539 127.38085938 172.79125977 C127.38462078 181.52291348 127.40273403 190.25442407 127.43595374 198.98601645 C127.4560627 204.49534077 127.45859011 210.00429335 127.44767356 215.51363909 C127.44504915 218.95487915 127.45915388 222.39590685 127.47775459 225.83709145 C127.48303461 227.42000043 127.48165247 229.00294956 127.47271919 230.58584213 C127.38527406 247.45463212 131.49643227 262.20967663 143.1875 274.875 C154.56342434 285.57147494 166.90827219 286.92201944 182 288 C182 308.13 182 328.26 182 349 C176.06 349.99 170.12 350.98 164 352 C149.74605484 356.88706691 138.84843237 365.37756896 132 379 C128.20685785 389.91767078 127.4233041 400.37300336 127.50170898 411.81665039 C127.49787333 413.4301249 127.49224376 415.04359597 127.48498535 416.65705872 C127.4731476 420.09671461 127.47343542 423.53606461 127.48357964 426.97572517 C127.49931174 432.42943664 127.48534549 437.88284199 127.46754456 443.33653259 C127.43688967 453.93032558 127.43521696 464.52402211 127.43719482 475.11785126 C127.43859262 488.60525263 127.42803358 502.09257981 127.3886171 515.57992738 C127.37380013 520.98664652 127.37386508 526.39308772 127.38609493 531.79981053 C127.39084709 535.177727 127.38322346 538.55553974 127.37255096 541.93343925 C127.37017051 543.48327084 127.37278758 545.03312072 127.38115883 546.58293152 C127.51193628 572.3629665 119.47488784 594.77058618 101.58203125 613.54296875 C89.67116538 624.87721177 73.96642802 633.09440679 58 637 C56.86522217 637.28254639 56.86522217 637.28254639 55.70751953 637.57080078 C44.72232858 639.84228771 33.40577798 639.2136126 22.25 639.125 C14.9075 639.08375 7.565 639.0425 0 639 C0 618.21 0 597.42 0 576 C17.625 575.875 17.625 575.875 23.09228516 575.88232422 C34.80890136 575.7563357 44.76035931 573.77434692 54.5 566.75 C61.17254408 559.41020152 65.24867253 551.26141262 65.2515564 541.26290894 C65.25452654 540.61035822 65.25749667 539.95780751 65.26055682 539.28548253 C65.26815822 537.11194298 65.26171845 534.93867679 65.25537109 532.76513672 C65.25812314 531.2006614 65.26180433 529.63618747 65.26634216 528.07171631 C65.27444314 524.7061868 65.27662521 521.34072369 65.27439499 517.97518539 C65.2715513 512.63437277 65.28595745 507.29369134 65.30337524 501.95291138 C65.35028823 486.76631676 65.37430472 471.57973028 65.38085938 456.39306641 C65.38463365 448.002336 65.40285752 439.61175362 65.43595374 431.22108662 C65.45271739 426.79162727 65.46208416 422.36243688 65.45301437 417.93294907 C65.35226133 364.01418948 65.35226133 364.01418948 83 342 C83.65613281 341.16855469 84.31226563 340.33710937 84.98828125 339.48046875 C90.83128109 332.52655121 97.39690275 327.85222789 105 323 C105.86109375 322.44828125 106.7221875 321.8965625 107.609375 321.328125 C109.39513399 320.20094379 111.19546641 319.09687336 113 318 C112.31035156 317.64808594 111.62070312 317.29617188 110.91015625 316.93359375 C89.98847978 305.94182134 76.87211687 289.67705184 69.75 267.1875 C67.82756738 260.8450481 66.87595 254.96342009 66.86869812 248.32969666 C66.86552455 247.36183813 66.86552455 247.36183813 66.86228687 246.3744269 C66.85632611 244.22608167 66.85728421 242.07779582 66.8581543 239.92944336 C66.85512007 238.38316753 66.85159789 236.8368926 66.84762573 235.2906189 C66.83975469 231.96601704 66.83459851 228.64142583 66.83133507 225.31681633 C66.82540399 220.04935839 66.80884245 214.78196728 66.78999329 209.51454163 C66.78365624 207.70766739 66.77733061 205.90079311 66.77101612 204.0939188 C66.76785031 203.18912789 66.7646845 202.28433697 66.76142275 201.35212815 C66.71943562 189.09584797 66.68639382 176.83959926 66.67407227 164.58325195 C66.66566691 156.30720765 66.64308492 148.03132948 66.6047166 139.75536829 C66.58503881 135.38259556 66.57252366 131.0100707 66.57755089 126.6372509 C66.58222963 122.5174693 66.56821791 118.39815633 66.54053879 114.27846909 C66.53368081 112.7761991 66.53344152 111.27388008 66.54073906 109.77161217 C66.59451202 97.44597349 65.31302921 85.59814533 56.97265625 75.9296875 C45.44104779 64.64926259 32.10793967 63.38984728 16.8125 63.25 C8.4903125 63.12625 8.4903125 63.12625 0 63 C0 42.21 0 21.42 0 0 Z " fill="#B5D22F" transform="translate(831,289)"/>
<path d="M0 0 C1 3 1 3 0 6 C-1.98 5.34 -3.96 4.68 -6 4 C-4.60804085 1.2160817 -2.84424221 1.02101003 0 0 Z " fill="#2E321D" transform="translate(318,604)"/>
<path d="M0 0 C0.66 0.33 1.32 0.66 2 1 C-1.5 5.875 -1.5 5.875 -6 7 C-4.02 4.69 -2.04 2.38 0 0 Z " fill="#A7C131" transform="translate(924,620)"/>
<path d="M0 0 C0.66 0 1.32 0 2 0 C0.68775452 3.93673644 -0.91910327 6.22719294 -4 9 C-3.35494404 5.51669784 -2.01782732 2.90567134 0 0 Z " fill="#ADC82C" transform="translate(347,574)"/>
</svg>
