<?xml version="1.0" encoding="UTF-8"?>
<svg version="1.1" xmlns="http://www.w3.org/2000/svg" width="1254" height="1254">
<path d="M0 0 C413.82 0 827.64 0 1254 0 C1254 413.82 1254 827.64 1254 1254 C840.18 1254 426.36 1254 0 1254 C0 840.18 0 426.36 0 0 Z " fill="#FEFEFE" transform="translate(0,0)"/>
<path d="M0 0 C99.66 0 199.32 0 302 0 C302 27.06 302 54.12 302 82 C231.05 82 160.1 82 87 82 C87 126.22 87 170.44 87 216 C152.67 216 218.34 216 286 216 C286 242.73 286 269.46 286 297 C220.33 297 154.66 297 87 297 C87 367.95 87 438.9 87 512 C58.29 512 29.58 512 0 512 C0 343.04 0 174.08 0 0 Z " fill="#252523" transform="translate(478,363)"/>
<path d="M0 0 C12.7153125 -0.0928125 12.7153125 -0.0928125 25.6875 -0.1875 C28.33612061 -0.21481201 30.98474121 -0.24212402 33.71362305 -0.27026367 C35.85465034 -0.27903999 37.9956827 -0.2866812 40.13671875 -0.29296875 C41.21457642 -0.30831665 42.29243408 -0.32366455 43.4029541 -0.33947754 C51.29289234 -0.34213976 58.394944 0.95075326 66 3 C66.99186813 3.25856277 67.98373627 3.51712555 69.00566101 3.78352356 C90.73122421 9.72618858 109.73878472 25.81253381 121 45 C131.10510997 62.9108536 134.31840389 80.20480489 134.23950195 100.54614258 C134.24061729 102.17872708 134.24267893 103.81131117 134.24560547 105.44389343 C134.250298 108.93701745 134.24923878 112.43007405 134.24382973 115.92319679 C134.23616388 121.46053964 134.24693832 126.9977552 134.2610321 132.53507996 C134.29861244 148.27347342 134.3169793 164.01180771 134.30541992 179.75024414 C134.29918089 188.45997563 134.31089524 197.16949957 134.34186524 205.87918013 C134.36039389 211.36963587 134.35732279 216.85949785 134.33769763 222.3499428 C134.33075754 225.78257391 134.34488597 229.21489142 134.36464691 232.64746284 C134.36964282 234.22308758 134.36634449 235.79876728 134.35351372 237.37434769 C134.24851954 251.26942867 136.36819463 264.27998585 146 275 C146.75152344 275.97453125 147.50304687 276.9490625 148.27734375 277.953125 C155.22079533 286.27930574 166.7043236 290.1576158 177 292 C181.29 292.33 185.58 292.66 190 293 C190 313.79 190 334.58 190 356 C185.05 356.66 180.1 357.32 175 358 C160.4187381 361.64531547 149.46727979 367.90297743 141.24609375 380.73828125 C135.08273247 391.4758962 134.71419063 401.04418865 134.76049805 413.14868164 C134.75938382 414.78740018 134.75732391 416.4261183 134.75439453 418.06483459 C134.74968457 421.5852945 134.75078011 425.10568762 134.75617027 428.62614632 C134.76381898 434.21577318 134.75307736 439.80527331 134.7389679 445.3948822 C134.70134969 461.28742935 134.68296737 477.17992002 134.69458008 493.07250977 C134.70084054 501.8569999 134.68898907 510.64128497 134.65813476 519.42572492 C134.64268353 524.060424 134.6362577 528.69471944 134.65271568 533.3294239 C134.76560313 567.39404948 132.34588249 597.5303616 107.75 623.5625 C95.14608354 635.68165044 80.01302507 644.08592107 63 648 C61.76890503 648.28472168 61.76890503 648.28472168 60.51293945 648.57519531 C48.55428436 650.85878795 36.30460878 650.21353469 24.1875 650.125 C16.205625 650.08375 8.22375 650.0425 0 650 C0 628.88 0 607.76 0 586 C17.75 585.75 17.75 585.75 23.27246094 585.70214844 C36.14190745 585.4921788 47.8909397 583.70223282 58 575 C66.04861612 566.48323171 69.11902277 556.71454282 69.13130188 545.1600647 C69.13341759 544.49652461 69.13553331 543.83298453 69.13771313 543.14933717 C69.14367627 540.9388967 69.1427156 538.72851391 69.1418457 536.51806641 C69.14487985 534.9273977 69.14840201 533.33672987 69.15237427 531.74606323 C69.16024724 528.32488535 69.16540229 524.90371782 69.16866493 521.4825325 C69.17459749 516.05882871 69.19116145 510.63518978 69.21000671 505.21151733 C69.21634393 503.35054211 69.22266956 501.48956684 69.22898388 499.62859154 C69.2337326 498.23065743 69.2337326 498.23065743 69.23857725 496.80448222 C69.28054546 484.18493338 69.31359159 471.56541474 69.32592773 458.94580078 C69.33434278 450.42471954 69.35696196 441.90379926 69.3952834 433.38279855 C69.41493238 428.88194113 69.42748617 424.3813237 69.42244911 419.88042068 C69.41775779 415.63669883 69.43184895 411.39343002 69.45946121 407.14979935 C69.46629903 405.60524992 69.46658103 404.06065287 69.45926094 402.51610565 C69.35820011 378.7649636 77.39303277 358.84696877 93 341 C98.89049067 335.53827989 105.44681807 331.36227931 112.43359375 327.4453125 C115.11514945 325.97742697 115.11514945 325.97742697 118 324 C117.31035156 323.63648438 116.62070312 323.27296875 115.91015625 322.8984375 C95.04716216 311.73716494 80.28550756 297.11195581 72.78871155 274.31690979 C68.59076266 258.21036459 69.44210882 241.40021838 69.49128985 224.89224696 C69.49942872 220.46202202 69.48242573 216.03189684 69.46754456 211.60169983 C69.43695158 201.33233076 69.43521625 191.06306164 69.43719482 180.7936554 C69.43859494 167.68987797 69.4281391 154.58617618 69.3886171 141.48245436 C69.37375962 136.22905396 69.37389444 130.97593942 69.38609493 125.72253501 C69.39082529 122.45302636 69.38325758 119.18362598 69.37255096 115.91413498 C69.37015797 114.40735225 69.37283329 112.90055092 69.38115883 111.39378929 C69.45192296 97.76551496 67.34421095 86.61854892 58.2890625 75.9921875 C47.19236894 65.17642289 33.15608189 65.2379513 18.6875 65.1875 C9.4371875 65.0946875 9.4371875 65.0946875 0 65 C0 43.55 0 22.1 0 0 Z " fill="#AFC92B" transform="translate(830,294)"/>
<path d="M0 0 C1.05513794 0.00012085 2.11027588 0.0002417 3.1973877 0.00036621 C4.8431781 0.00804016 4.8431781 0.00804016 6.5222168 0.01586914 C7.53940796 0.01687622 8.55659912 0.0178833 9.60461426 0.0189209 C13.3935662 0.0241412 17.18250204 0.03810246 20.97143555 0.05102539 C33.68674805 0.08196289 33.68674805 0.08196289 46.65893555 0.11352539 C46.65893555 21.23352539 46.65893555 42.35352539 46.65893555 64.11352539 C30.47143555 64.36352539 30.47143555 64.36352539 25.45117188 64.41137695 C11.62765104 64.6583289 -0.99568064 67.1165572 -11.3059082 76.99633789 C-18.69745922 84.96608634 -22.58401571 94.03880128 -22.59934998 105.0045166 C-22.60302568 105.66144957 -22.60670138 106.31838254 -22.61048847 106.99522257 C-22.62039851 109.177316 -22.61633166 111.35915107 -22.61230469 113.54125977 C-22.61669605 115.11399606 -22.6219997 116.68673003 -22.62814331 118.25946045 C-22.63961687 121.6386202 -22.64510082 125.01771746 -22.6460247 128.39689636 C-22.64797292 133.75322105 -22.66606978 139.10941765 -22.68678284 144.46569824 C-22.73587894 157.7752734 -22.76677914 171.08488341 -22.78808594 184.39453125 C-22.80466178 194.73093249 -22.82763675 205.06722374 -22.87110668 215.40355158 C-22.89273627 220.71405696 -22.90095459 226.02435263 -22.89871395 231.33489895 C-22.90039638 234.65930334 -22.91454075 237.98357418 -22.93192673 241.30792999 C-22.93746406 242.83355475 -22.93806992 244.35920794 -22.93298912 245.88483429 C-22.86475111 268.80268335 -28.95690361 289.93408333 -45.11450195 306.87524414 C-46.21665039 307.98319336 -46.21665039 307.98319336 -47.34106445 309.11352539 C-47.93145508 309.7387207 -48.5218457 310.36391602 -49.13012695 311.00805664 C-55.39736636 317.12344664 -63.50142298 320.45058611 -71.34106445 324.11352539 C-70.30208008 324.65879883 -69.2630957 325.20407227 -68.19262695 325.76586914 C-59.61094891 330.36584642 -52.17234843 335.06068626 -45.34106445 342.11352539 C-44.28338867 343.17506836 -44.28338867 343.17506836 -43.2043457 344.25805664 C-35.43743945 352.46878611 -30.57558967 361.67322271 -26.96606445 372.30102539 C-26.58973877 373.40498657 -26.58973877 373.40498657 -26.20581055 374.53125 C-22.9108356 384.81914913 -23.195002 395.32376368 -23.19921875 406.01538086 C-23.1961823 407.61460465 -23.19265952 409.21382757 -23.18869019 410.81304932 C-23.18083887 414.24237029 -23.17567061 417.67168104 -23.17239952 421.10100937 C-23.16645641 426.53198123 -23.14988583 431.96288871 -23.13105774 437.39382935 C-23.12472147 439.25809284 -23.11839584 441.12235638 -23.11208057 442.98661995 C-23.10891476 443.91983896 -23.10574895 444.85305798 -23.10248721 445.81455636 C-23.06051244 458.44626532 -23.0274329 471.07794267 -23.01513672 483.7097168 C-23.00674064 492.2476187 -22.98419786 500.78535918 -22.94578105 509.32318032 C-22.92608249 513.83333554 -22.91359538 518.34324981 -22.91861534 522.85345078 C-22.92328196 527.09719829 -22.90934731 531.34048907 -22.88160324 535.58414459 C-22.87472682 537.13402176 -22.87452634 538.68394653 -22.88180351 540.23382187 C-22.93797066 553.5490885 -20.63421975 565.04879815 -11.34106445 575.11352539 C-2.67522255 581.98152845 5.99393955 585.53968944 16.97143555 585.62524414 C18.10935547 585.65019958 18.10935547 585.65019958 19.27026367 585.67565918 C22.06621436 585.73288215 24.86262416 585.76556658 27.65893555 585.80102539 C33.92893555 585.90415039 40.19893555 586.00727539 46.65893555 586.11352539 C46.65893555 607.23352539 46.65893555 628.35352539 46.65893555 650.11352539 C34.71706055 650.17540039 34.71706055 650.17540039 22.53393555 650.23852539 C18.80959229 650.2658374 18.80959229 650.2658374 15.01000977 650.29370117 C-15.34091168 650.42598514 -39.80034574 643.5382824 -62.09106445 621.86352539 C-68.03955102 615.87917295 -72.3930069 609.60308995 -76.34106445 602.11352539 C-76.89407227 601.07583008 -77.44708008 600.03813477 -78.0168457 598.96899414 C-85.06157194 584.79213812 -86.94057572 571.12498571 -86.80761719 555.57836914 C-86.80816762 553.88770397 -86.81055275 552.19703858 -86.81460571 550.50637817 C-86.81973586 546.89973752 -86.81284616 543.29340391 -86.79635429 539.6867981 C-86.77098084 533.96819374 -86.77758815 528.24988361 -86.78883362 522.53125 C-86.81190575 508.3339092 -86.79365848 494.13665742 -86.76733398 479.93933105 C-86.74731981 468.88612433 -86.7389227 457.83315745 -86.76427037 446.77995014 C-86.77599396 441.1107523 -86.76464571 435.44224248 -86.73501766 429.77311707 C-86.72163957 426.23012421 -86.72926151 422.68739005 -86.74229813 419.14440536 C-86.7441339 417.5191907 -86.73762566 415.89393829 -86.72149467 414.26880264 C-86.57417471 398.55179703 -89.28899667 384.060655 -100.34106445 372.11352539 C-107.09810132 365.37962906 -114.34513416 362.03690564 -123.34106445 359.11352539 C-124.49606445 358.70102539 -125.65106445 358.28852539 -126.84106445 357.86352539 C-132.24914082 356.70465188 -137.82650781 356.53772206 -143.34106445 356.11352539 C-143.34106445 335.32352539 -143.34106445 314.53352539 -143.34106445 293.11352539 C-136.74106445 292.45352539 -130.14106445 291.79352539 -123.34106445 291.11352539 C-109.89051754 285.44508062 -100.69577977 279.69971976 -93.34106445 267.11352539 C-92.94918945 266.46512695 -92.55731445 265.81672852 -92.15356445 265.14868164 C-86.50765945 254.99850684 -87.04522019 243.28182243 -87.05395508 232.00048828 C-87.04791885 230.40258947 -87.0409916 228.80469382 -87.0332489 227.20680237 C-87.01844615 223.78624107 -87.00963249 220.36573726 -87.00553894 216.94514656 C-86.99877933 211.52631533 -86.97697186 206.10760618 -86.95300293 200.68882751 C-86.90419957 189.18458888 -86.87177294 177.68032442 -86.84106445 166.17602539 C-86.80790484 153.7561822 -86.77185122 141.33638732 -86.71693373 128.91661829 C-86.69371803 123.54008854 -86.6798778 118.16364429 -86.67343903 112.78706944 C-86.66746228 109.43115396 -86.6533336 106.07530711 -86.6370945 102.71942711 C-86.63126446 101.17479986 -86.62873661 99.63015567 -86.62993431 98.08551788 C-86.64517892 70.56337727 -78.29433926 47.52247578 -59.09106445 27.42602539 C-44.20740154 13.03917459 -21.43441304 -0.05215186 0 0 Z " fill="#AEC92A" transform="translate(376.341064453125,293.886474609375)"/>
<path d="M0 0 C0.99 0 1.98 0 3 0 C2.96970703 0.63800537 2.93941406 1.27601074 2.90820312 1.93334961 C2.2997614 14.96453332 1.84047155 27.9541178 2 41 C1.34 41 0.68 41 0 41 C0 27.47 0 13.94 0 0 Z " fill="#F8F8F8" transform="translate(566,446)"/>
<path d="M0 0 C1.67425816 2.51138725 2.86022007 4.75715606 4.0625 7.5 C4.40410156 8.2734375 4.74570312 9.046875 5.09765625 9.84375 C5.80487725 11.53373264 6.42067256 13.26201767 7 15 C6.01 15.495 6.01 15.495 5 16 C1.50397814 10.49376557 -0.7013076 6.59229145 0 0 Z " fill="#BBD54B" transform="translate(965,550)"/>
<path d="M0 0 C0.99 0.33 1.98 0.66 3 1 C-0.17320782 4.53586014 -2.16743695 6.58578031 -7 7 C-4.66666667 4.66666667 -2.33333333 2.33333333 0 0 Z " fill="#B7D23C" transform="translate(328,312)"/>
<path d="M0 0 C0.33 0.99 0.66 1.98 1 3 C-1.31 4.98 -3.62 6.96 -6 9 C-6 6 -6 6 -4.6875 4.39453125 C-4.130625 3.87246094 -3.57375 3.35039062 -3 2.8125 C-2.443125 2.28269531 -1.88625 1.75289063 -1.3125 1.20703125 C-0.6628125 0.60955078 -0.6628125 0.60955078 0 0 Z " fill="#B2CF31" transform="translate(320,319)"/>
<path d="M0 0 C0.66 0.66 1.32 1.32 2 2 C0.35 3.65 -1.3 5.3 -3 7 C-3.99 6.34 -4.98 5.68 -6 5 C-4.02 3.35 -2.04 1.7 0 0 Z " fill="#B7D23B" transform="translate(275,572)"/>
<path d="M0 0 C0.66 0.33 1.32 0.66 2 1 C1.67 1.99 1.34 2.98 1 4 C-1.64 4.33 -4.28 4.66 -7 5 C-2.25 1.125 -2.25 1.125 0 0 Z " fill="#BAD44A" transform="translate(343,303)"/>
</svg>
