<?xml version="1.0" encoding="UTF-8"?>
<svg version="1.1" xmlns="http://www.w3.org/2000/svg" width="1024" height="1024">
<path d="M0 0 C30.68495243 -0.0227899 61.36990294 -0.04049793 92.05486181 -0.05106533 C95.67370021 -0.05231611 99.29253858 -0.05361042 102.91137695 -0.05493164 C103.6318528 -0.05519395 104.35232865 -0.05545626 105.0946371 -0.05572652 C116.77574418 -0.06008331 128.45684636 -0.06797091 140.13795053 -0.0771528 C152.11495649 -0.08648908 164.09195987 -0.09205555 176.06896931 -0.09408849 C182.80000169 -0.09534006 189.53102383 -0.09836182 196.26205254 -0.10573006 C202.58942067 -0.11248605 208.91677304 -0.11461783 215.24414444 -0.11310768 C217.57387058 -0.1133842 219.90359721 -0.11539181 222.23332024 -0.11920547 C225.39905111 -0.12413615 228.56472139 -0.12300061 231.73045349 -0.12025452 C233.13266204 -0.12462378 233.13266204 -0.12462378 234.56319803 -0.12908131 C240.88587879 -0.11412121 240.88587879 -0.11412121 242 1 C242 22.12 242 43.24 242 65 C184.58 65.33 127.16 65.66 68 66 C67.67 99.99 67.34 133.98 67 169 C68.32 168.67 69.64 168.34 71 168 C73.19650299 167.92151524 75.39534994 167.90230385 77.59320068 167.91770935 C78.25407031 167.92093848 78.91493994 167.92416761 79.59583592 167.92749459 C81.80841605 167.93955041 84.02087093 167.95892716 86.23339844 167.97827148 C87.82017242 167.98841632 89.40694934 167.99810977 90.99372864 168.00738525 C95.30124614 168.03384575 99.60869516 168.06662947 103.91615963 168.10053515 C108.41781672 168.13489845 112.91951046 168.16346493 117.42120361 168.19264221 C125.9457257 168.248776 134.47020188 168.31013484 142.99467397 168.37336355 C152.69951282 168.44509356 162.40438843 168.51100988 172.10927153 168.57643402 C192.07289542 168.7111465 212.03646178 168.85317237 232 169 C232.33 168.34 232.66 167.68 233 167 C234.19960121 173.570826 234.12713266 180.05044374 234.09765625 186.71484375 C234.09553383 188.53116051 234.09553383 188.53116051 234.09336853 190.38417053 C234.08779026 194.23530594 234.0752417 198.08638229 234.0625 201.9375 C234.05748219 204.5553377 234.05291978 207.17317631 234.04882812 209.79101562 C234.03782794 216.19403042 234.02111144 222.59701099 234 229 C230.60363023 230.13212326 228.03299384 230.12300768 224.4511261 230.12025452 C223.78294379 230.12110894 223.11476148 230.12196337 222.42633122 230.12284368 C220.18303811 230.12449334 217.93981945 230.11898551 215.6965332 230.11352539 C214.09019981 230.11324338 212.48386628 230.11340152 210.87753296 230.1139679 C206.5121361 230.11425534 202.14676661 230.10836718 197.78137612 230.10139394 C193.22096663 230.09515157 188.66055654 230.0945559 184.10014343 230.09336853 C175.46228285 230.09025783 166.8244349 230.08204794 158.18657988 230.07201904 C148.35356732 230.06084982 138.52055416 230.05534541 128.68753684 230.05032361 C108.45835084 230.03986513 88.22917621 230.02227071 68 230 C68.00092179 230.82367537 68.00184359 231.64735075 68.00279331 232.49598598 C68.02484679 252.50812694 68.04141069 272.52026581 68.05181217 292.53241634 C68.05697553 302.21001051 68.06401897 311.88759658 68.07543945 321.56518555 C68.08538509 329.99700331 68.09185314 338.42881521 68.09408849 346.86063868 C68.09539581 351.32807392 68.09848295 355.7954924 68.10573006 360.26292229 C68.11248838 364.4628416 68.11461735 368.66273713 68.11310768 372.86266136 C68.11338409 374.40868509 68.11539033 375.95470956 68.11920547 377.50072861 C68.1241398 379.60235776 68.12299928 381.70389572 68.12025452 383.80552673 C68.12117631 384.98449996 68.1220981 386.16347319 68.12304783 387.37817287 C68 390 68 390 67 391 C64.91380978 391.09417773 62.82439523 391.11742878 60.73608398 391.11352539 C59.7556311 391.11374443 59.7556311 391.11374443 58.75537109 391.1139679 C56.58557872 391.11326883 54.41587121 391.10547678 52.24609375 391.09765625 C50.74536689 391.09579205 49.24463943 391.09436816 47.74391174 391.09336853 C43.78681774 391.08954352 39.82976022 391.0797134 35.87268066 391.06866455 C31.83765151 391.05845006 27.80261647 391.05387083 23.76757812 391.04882812 C15.84503531 391.03809111 7.92252219 391.0210149 0 391 C-0.84130496 387.34361776 -1.12523401 383.97039577 -1.12584114 380.22175789 C-1.12975276 378.47899564 -1.12975276 378.47899564 -1.13374341 376.70102608 C-1.13151268 375.42861844 -1.12928196 374.15621081 -1.12698364 372.84524536 C-1.12813604 371.4761189 -1.12972437 370.10699274 -1.13171089 368.73786724 C-1.13589006 364.97476095 -1.13381962 361.21167998 -1.13072467 357.44857359 C-1.12846416 353.38773648 -1.13195405 349.32690375 -1.13470459 345.2660675 C-1.1391593 337.29867025 -1.13818567 329.33128239 -1.13529195 321.36388476 C-1.13303011 314.86459706 -1.13272881 308.365312 -1.13381577 301.86602402 C-1.133969 300.93942398 -1.13412223 300.01282395 -1.13428011 299.05814513 C-1.13459987 297.17499917 -1.13492409 295.29185321 -1.1352527 293.40870725 C-1.13810832 275.71977437 -1.13482264 258.03084666 -1.12945233 240.34191464 C-1.1250152 225.26374776 -1.12573428 210.18558861 -1.13037109 195.10742188 C-1.13576937 177.54527309 -1.13780114 159.98312888 -1.13475883 142.42097938 C-1.13444036 140.53206563 -1.13412598 138.64315188 -1.13381577 136.75423813 C-1.13366149 135.82529316 -1.13350721 134.89634819 -1.13334826 133.93925337 C-1.13249638 127.49213583 -1.13393551 121.04502129 -1.13629532 114.59790421 C-1.14911158 76.38708271 -1.11682936 38.19851871 0 0 Z " fill="#E3E4E4" transform="translate(393,302)"/>
<path d="M0 0 C16.66803929 10.32603035 27.49892023 26.87118706 32.18334961 45.7644043 C34.64274751 58.60693299 34.01731561 72.23150149 33.89819336 85.26049805 C33.96657342 93.91912311 34.48391976 102.57129064 34.92944336 111.2175293 C34.26944336 111.2175293 33.60944336 111.2175293 32.92944336 111.2175293 C33.08155273 112.15338867 33.23366211 113.08924805 33.39038086 114.0534668 C34.0872876 118.96628997 34.33093853 123.8887282 34.55444336 128.8425293 C34.62308594 130.35943359 34.62308594 130.35943359 34.69311523 131.90698242 C34.94588348 138.54940029 34.84108159 145.08565055 34.42944336 151.7175293 C32.35409224 176.17469385 32.35409224 176.17469385 40.56225586 198.36206055 C41.92944336 200.2175293 41.92944336 200.2175293 41.92944336 202.2175293 C42.50952148 202.4959668 43.08959961 202.7744043 43.68725586 203.0612793 C46.50670439 204.51521095 49.09367484 206.24560202 51.73413086 207.9987793 C60.05856233 212.62017186 68.19714285 212.13616257 77.92944336 213.2175293 C77.92944336 229.7175293 77.92944336 246.2175293 77.92944336 263.2175293 C72.31944336 263.5475293 66.70944336 263.8775293 60.92944336 264.2175293 C51.59424101 266.52910321 44.9979513 269.40091565 39.40209961 277.40112305 C34.46148343 286.12238464 33.60393848 296.34388117 33.92944336 306.2175293 C34.25944336 306.8775293 34.58944336 307.5375293 34.92944336 308.2175293 C34.8117804 310.70904247 34.6412219 313.17147049 34.42944336 315.6550293 C33.98170392 321.52107436 33.96229785 327.03414979 34.77319336 332.88549805 C34.92944336 335.2175293 34.92944336 335.2175293 34.44432068 337.42881775 C33.83462959 340.73106572 33.82503417 343.81001479 33.84765625 347.16894531 C33.85072281 347.84956024 33.85378937 348.53017517 33.85694885 349.23141479 C33.86408238 350.70568083 33.87346104 352.17993736 33.88484383 353.65417671 C33.90237354 356.00822204 33.91258134 358.36219797 33.92076111 360.71629333 C33.94506107 367.40907366 33.98010802 374.1017626 34.02539062 380.79443359 C34.43991551 444.33864992 34.43991551 444.33864992 13.37866211 466.8659668 C0.43593236 479.29263874 -16.83449764 486.86557316 -34.82446289 487.53393555 C-35.92725586 487.57583008 -37.03004883 487.61772461 -38.16625977 487.66088867 C-39.31030273 487.70020508 -40.4543457 487.73952148 -41.63305664 487.7800293 C-42.7500293 487.82321289 -43.86700195 487.86639648 -45.01782227 487.91088867 C-52.37182213 488.17946954 -59.7119977 488.27010832 -67.07055664 488.2175293 C-68.27951366 485.79961526 -68.15717508 484.37256205 -68.09228516 481.67602539 C-68.07218887 480.73520111 -68.05209259 479.79437683 -68.03138733 478.82504272 C-68.00435226 477.80729767 -67.9773172 476.78955261 -67.94946289 475.7409668 C-67.9258519 474.70058258 -67.90224091 473.66019836 -67.87791443 472.58828735 C-67.80117088 469.25623286 -67.71719248 465.92440455 -67.63305664 462.5925293 C-67.57984667 460.33733213 -67.52710621 458.08212384 -67.47485352 455.8269043 C-67.34554132 450.29030516 -67.21028432 444.75387483 -67.07055664 439.2175293 C-66.30698853 439.20274536 -65.54342041 439.18796143 -64.75671387 439.17272949 C-44.1874454 439.52481566 -44.1874454 439.52481566 -25.57055664 431.9675293 C-16.97680652 422.51440416 -15.76861854 413.33346591 -15.83105469 400.9050293 C-15.82904053 399.69085831 -15.82702637 398.47668732 -15.82495117 397.22572327 C-15.82141484 394.59733867 -15.8213249 391.96920739 -15.82672691 389.34085083 C-15.83439115 385.16873854 -15.82361811 380.99679531 -15.80952454 376.82470703 C-15.77194607 364.9649185 -15.75354066 353.10520686 -15.76513672 341.24536133 C-15.77139274 334.68504947 -15.75957181 328.12501241 -15.7286914 321.56476784 C-15.71323097 318.1045241 -15.70682728 314.64482136 -15.72327232 311.18457031 C-15.80965703 288.06590789 -13.66346917 268.70970806 2.92944336 251.2175293 C8.73007974 246.39925876 15.26781538 242.70925218 21.92944336 239.2175293 C21.26944336 238.8875293 20.60944336 238.5575293 19.92944336 238.2175293 C18.59611003 237.2175293 17.26277669 236.2175293 15.92944336 235.2175293 C14.51589174 234.3167887 13.09908741 233.4211368 11.67944336 232.5300293 C-1.68258058 223.59280673 -10.6744975 209.47158484 -14.11878967 193.79281616 C-15.28952364 187.78043394 -15.35579656 181.90717535 -15.34179688 175.7980957 C-15.34702362 174.59671463 -15.35225037 173.39533356 -15.3576355 172.157547 C-15.37047684 168.89087862 -15.37492307 165.62432082 -15.37647891 162.35763216 C-15.38098573 158.9185876 -15.39900665 155.47961907 -15.41627502 152.0406189 C-15.46521934 141.82841526 -15.49629263 131.61616743 -15.51757812 121.40386963 C-15.53416094 113.45883602 -15.55713065 105.51394543 -15.60059887 97.56900728 C-15.61868662 94.15599976 -15.6310073 90.74318729 -15.62930107 87.33012772 C-15.62949426 83.51849008 -15.64784413 79.707317 -15.66992188 75.89575195 C-15.6653447 74.7857634 -15.66076752 73.67577484 -15.65605164 72.53215027 C-15.74598239 62.70918682 -16.77939115 52.63513468 -23.35571289 44.90112305 C-31.990324 36.42386249 -42.09214441 36.14320408 -53.66772461 36.18554688 C-55.67215003 36.20671924 -57.67648187 36.24151888 -59.68041992 36.29052734 C-60.60580566 36.30768799 -61.53119141 36.32484863 -62.48461914 36.3425293 C-63.31944824 36.36573242 -64.15427734 36.38893555 -65.0144043 36.4128418 C-67.07055664 36.2175293 -67.07055664 36.2175293 -69.07055664 34.2175293 C-68.41055664 34.2175293 -67.75055664 34.2175293 -67.07055664 34.2175293 C-67.07055664 19.3675293 -67.07055664 4.5175293 -67.07055664 -10.7824707 C-45.87876788 -16.08041789 -18.50329421 -10.86660619 0 0 Z " fill="#CBEB60" transform="translate(741.070556640625,261.782470703125)"/>
<path d="M0 0 C2.90535183 -0.03974622 5.81023828 -0.06429982 8.71582031 -0.07910156 C9.64281738 -0.08393555 10.56981445 -0.08876953 11.52490234 -0.09375 C12.38196777 -0.09149414 13.2390332 -0.08923828 14.12207031 -0.08691406 C14.88841797 -0.08578613 15.65476562 -0.0846582 16.44433594 -0.08349609 C18.21582031 0.04589844 18.21582031 0.04589844 19.21582031 1.04589844 C19.30877847 2.4887963 19.33328544 3.93619628 19.3293457 5.38208008 C19.32927017 6.30295914 19.32919464 7.2238382 19.32911682 8.17262268 C19.32395554 9.17365524 19.31879425 10.17468781 19.31347656 11.20605469 C19.31135414 12.73545937 19.31135414 12.73545937 19.30918884 14.29576111 C19.30357128 17.56666951 19.29101581 20.83751057 19.27832031 24.10839844 C19.27330757 26.31998599 19.26874428 28.53157462 19.26464844 30.74316406 C19.25359615 36.17743201 19.23684094 41.61166041 19.21582031 47.04589844 C15.98598071 47.77325988 13.08078382 48.14748921 9.77441406 48.03808594 C-8.32791284 47.43621778 -8.32791284 47.43621778 -24.16699219 55.31152344 C-26.87060842 58.21105389 -28.46548958 61.33137035 -29.78417969 65.04589844 C-30.12518707 65.99513687 -30.46619446 66.94437531 -30.8175354 67.92237854 C-32.32136576 73.27528658 -32.05956029 78.72701235 -32.03955078 84.24487305 C-32.04317123 85.45889801 -32.04679169 86.67292297 -32.05052185 87.92373657 C-32.05740345 90.55486466 -32.06081026 93.18573618 -32.05857468 95.81684685 C-32.05572348 99.99308475 -32.07016378 104.16915591 -32.08755493 108.34535217 C-32.13440006 120.21792068 -32.15848853 132.09047787 -32.16503906 143.96313477 C-32.16881394 150.52817642 -32.18703909 157.09302894 -32.22013342 163.65798956 C-32.23688735 167.1215262 -32.24627081 170.58471919 -32.23719406 174.04829216 C-32.18056986 197.74661018 -33.53170041 219.45081999 -50.88574219 237.49902344 C-56.07278253 242.05690794 -61.85806155 245.53954765 -67.78417969 249.04589844 C-68.77417969 249.70589844 -69.76417969 250.36589844 -70.78417969 251.04589844 C-70.03394531 251.38621094 -69.28371094 251.72652344 -68.51074219 252.07714844 C-52.32588296 259.74151503 -42.58181073 270.31613743 -35.75683594 286.80371094 C-33.10128221 295.65555668 -32.49167466 304.32108429 -32.51293945 313.51879883 C-32.50771271 314.71378494 -32.50248596 315.90877106 -32.49710083 317.13996887 C-32.48427593 320.38371748 -32.47981493 323.6273546 -32.47825742 326.87112355 C-32.47374696 330.28574035 -32.45572528 333.70028078 -32.4384613 337.11485291 C-32.38954612 347.24943486 -32.35841277 357.38406099 -32.3371582 367.51873779 C-32.32058872 375.41000568 -32.29766881 383.30112928 -32.25413746 391.19230074 C-32.23602643 394.5817558 -32.223732 397.97101371 -32.22543526 401.36052132 C-32.22524253 405.14132688 -32.20692745 408.92166057 -32.18481445 412.70239258 C-32.18939163 413.8086499 -32.19396881 414.91490723 -32.19868469 416.0546875 C-32.1027537 426.40767416 -30.24510467 435.46681401 -22.78417969 443.04589844 C-14.03022037 450.303928 -3.64742176 450.3672257 7.27832031 450.67089844 C11.21769531 450.79464844 15.15707031 450.91839844 19.21582031 451.04589844 C19.54582031 466.88589844 19.87582031 482.72589844 20.21582031 499.04589844 C12.82753801 500.27727882 5.66919089 500.20079935 -1.78417969 500.04589844 C-2.49106934 500.03333008 -3.19795898 500.02076172 -3.92626953 500.0078125 C-24.07817706 499.55287425 -43.85185902 494.76818107 -58.67480469 480.26855469 C-59.37089844 479.53507812 -60.06699219 478.80160156 -60.78417969 478.04589844 C-61.43902344 477.36398437 -62.09386719 476.68207031 -62.76855469 475.97949219 C-82.4238029 454.51831305 -80.96579065 426.43238344 -80.85934448 399.17399979 C-80.84633547 395.8084068 -80.84000482 392.44285416 -80.83520508 389.07723999 C-80.82390339 381.94177438 -80.80464509 374.80634287 -80.78417969 367.67089844 C-80.76044676 359.36940107 -80.74011909 351.06792288 -80.72824097 342.76639938 C-80.72182782 339.47352207 -80.7093284 336.18070564 -80.6965332 332.8878479 C-79.75907692 306.84950644 -79.75907692 306.84950644 -91.31152344 284.45996094 C-97.32537062 278.86885584 -104.71087147 276.16342236 -112.89355469 275.72949219 C-113.64765625 275.68759766 -114.40175781 275.64570312 -115.17871094 275.60253906 C-116.34466797 275.54356445 -116.34466797 275.54356445 -117.53417969 275.48339844 C-118.32695312 275.44021484 -119.11972656 275.39703125 -119.93652344 275.35253906 C-121.88555783 275.24686852 -123.83484717 275.14591877 -125.78417969 275.04589844 C-127.00375529 272.60674723 -126.87004261 271.13474697 -126.8059082 268.41259766 C-126.78581192 267.45175262 -126.76571564 266.49090759 -126.74501038 265.50094604 C-126.71797531 264.46132721 -126.69094025 263.42170837 -126.66308594 262.35058594 C-126.63947495 261.28800568 -126.61586395 260.22542542 -126.59153748 259.13064575 C-126.51478957 255.72726447 -126.43081304 252.32410439 -126.34667969 248.92089844 C-126.29347015 246.61752395 -126.24072969 244.31413857 -126.18847656 242.01074219 C-126.05915941 236.35565655 -125.92390248 230.70073602 -125.78417969 225.04589844 C-124.55513916 224.92037598 -123.32609863 224.79485352 -122.05981445 224.66552734 C-120.42754481 224.4930921 -118.79530343 224.32038913 -117.16308594 224.14746094 C-116.35536743 224.06568604 -115.54764893 223.98391113 -114.7154541 223.8996582 C-103.5364563 222.70079236 -95.44799858 219.53996437 -87.78417969 211.04589844 C-82.97684801 204.65433246 -81.5893087 197.36605217 -81.16699219 189.52636719 C-81.12945831 188.83101364 -81.09192444 188.1356601 -81.05325317 187.41923523 C-80.70136101 180.3999466 -80.63457389 173.38581306 -80.65917969 166.35839844 C-80.65973358 165.67990845 -80.66028748 165.00141846 -80.66085815 164.30236816 C-80.67204225 152.26828001 -80.95849381 140.24573298 -81.27139282 128.21630859 C-81.73813224 110.11128423 -81.94753842 92.13415228 -80.78417969 74.04589844 C-80.70127686 72.70906006 -80.70127686 72.70906006 -80.61669922 71.34521484 C-79.27292872 51.62262293 -73.03886222 33.39056471 -58.36328125 19.39697266 C-54.72878974 16.28731341 -50.67286223 13.72779282 -46.61035156 11.21728516 C-44.97410959 10.20327011 -43.37500248 9.12977903 -41.78417969 8.04589844 C-41.78417969 7.38589844 -41.78417969 6.72589844 -41.78417969 6.04589844 C-40.264375 5.86027344 -40.264375 5.86027344 -38.71386719 5.67089844 C-34.95925704 5.07374374 -31.54307855 4.14658941 -27.90917969 3.04589844 C-18.63991841 0.44522048 -9.57462708 0.15784198 0 0 Z " fill="#CBEA5F" transform="translate(329.7841796875,249.9541015625)"/>
<path d="M0 0 C0 0.33 0 0.66 0 1 C-0.70793701 1.03440186 -1.41587402 1.06880371 -2.14526367 1.10424805 C-48.54031265 3.52124236 -88.83736299 19.81642245 -120.34277344 54.64111328 C-141.31463982 78.75799812 -154.18998757 110.4387376 -158 142 C-158.0870926 142.71222182 -158.17418519 143.42444364 -158.26391696 144.15824794 C-159.01594237 150.89775808 -159.14007849 157.55695005 -159.12584114 164.33379459 C-159.12729458 165.54573871 -159.12874802 166.75768282 -159.13024551 168.00635251 C-159.13325792 171.35886602 -159.13181785 174.71132313 -159.12846755 178.06383268 C-159.12592407 181.71562941 -159.12919347 185.3674218 -159.13171089 189.01921791 C-159.13531903 195.4159175 -159.13521518 201.81260865 -159.13266373 208.20930862 C-159.1288798 217.72183791 -159.13081579 227.23436009 -159.13387203 236.74688933 C-159.13913802 253.73867294 -159.13868118 270.73045278 -159.13579312 287.72223675 C-159.13327743 302.59641504 -159.13262092 317.47059196 -159.13381577 332.34477043 C-159.13389215 333.33146752 -159.13396854 334.3181646 -159.13404724 335.33476159 C-159.13435858 339.34017775 -159.13467698 343.34559391 -159.135007 347.35101007 C-159.1380665 384.93175937 -159.13529205 422.51250627 -159.1299101 460.0932552 C-159.12516703 493.46654967 -159.1255869 526.83984033 -159.13037109 560.21313477 C-159.13572912 597.71464676 -159.13784694 635.21615663 -159.13475883 672.71766895 C-159.13443812 676.71795237 -159.13412528 680.71823579 -159.13381577 684.71851921 C-159.13373669 685.70347746 -159.13365761 686.68843571 -159.13357614 687.70324118 C-159.13243981 702.56161228 -159.13376686 717.41998185 -159.13629532 732.27835274 C-159.13915758 749.18251662 -159.13843347 766.08667615 -159.13301457 782.99083949 C-159.13008352 792.44545794 -159.12987903 801.90006697 -159.13366075 811.35468517 C-159.13591052 817.67821293 -159.13449425 824.00173318 -159.13015598 830.32525983 C-159.12778789 833.92285587 -159.12694142 837.52043328 -159.13056196 841.11802871 C-159.45458006 868.05855772 -159.45458006 868.05855772 -155.9375 894.6875 C-155.71980957 895.69659424 -155.50211914 896.70568848 -155.27783203 897.74536133 C-150.16574035 920.23400347 -140.75916767 943.08011672 -126 961 C-125.35780518 961.78793945 -125.35780518 961.78793945 -124.70263672 962.59179688 C-108.44883813 982.47209974 -89.37546952 997.37428373 -66 1008 C-65.30616211 1008.31598145 -64.61232422 1008.63196289 -63.89746094 1008.95751953 C-41.21460955 1019.13090874 -17.69786843 1022.28732519 7 1023 C7 1023.33 7 1023.66 7 1024 C-35.6930636 1025.41801182 -75.88851451 1013.87584918 -107.703125 984.140625 C-109.93438983 982.0611469 -112.23697773 980.09768441 -114.5625 978.125 C-119.67428958 973.56922964 -123.8523846 968.43239862 -128 963 C-128.40895508 962.46600586 -128.81791016 961.93201172 -129.23925781 961.38183594 C-142.42581227 944.01294088 -152.12523782 924.02629876 -157.12163156 902.74039435 C-157.64592192 900.50778603 -158.19813449 898.28102009 -158.80741554 896.07009339 C-162.01947589 883.0077529 -161.42700777 869.61619393 -161.39160402 856.25412365 C-161.38484864 852.44400331 -161.39558303 848.6339233 -161.40399987 844.82381177 C-161.41633456 838.15683447 -161.41759307 831.48992758 -161.41144943 824.82294273 C-161.40233779 814.90849456 -161.41040693 804.99411122 -161.42174067 795.079668 C-161.44138816 777.36866533 -161.44375864 759.65769195 -161.43854547 741.94668098 C-161.43398493 726.4448094 -161.43459167 710.9429494 -161.44038582 695.44107819 C-161.44114269 693.36014279 -161.44189867 691.2792074 -161.44265376 689.198272 C-161.44379898 686.0623207 -161.44494886 682.92636941 -161.44611301 679.79041811 C-161.45681526 650.64182667 -161.46154611 621.49323908 -161.45364285 592.34464645 C-161.45334567 591.24628495 -161.4530485 590.14792345 -161.45274232 589.01627826 C-161.45029349 580.09733078 -161.44768185 571.17838335 -161.44505819 562.25943593 C-161.43495725 527.47551056 -161.44330937 492.69163348 -161.46655273 457.90771484 C-161.49263819 418.80752921 -161.50546977 379.70737263 -161.49836498 340.60717797 C-161.49764895 336.43618028 -161.49697456 332.26518258 -161.49632454 328.09418488 C-161.49615473 327.06721631 -161.49598492 326.04024774 -161.49580997 324.98215892 C-161.49350919 309.49521314 -161.50147343 294.00829439 -161.51461601 278.52135468 C-161.52954063 260.90332617 -161.53035253 243.28536092 -161.5125451 225.66733375 C-161.50299651 215.81536144 -161.50438746 205.96353674 -161.52177979 196.11157434 C-161.5322983 189.52080088 -161.52812823 182.93013941 -161.51229975 176.33937691 C-161.50369965 172.59079784 -161.50116461 168.84250716 -161.51656907 165.09394333 C-161.5908735 145.68334285 -160.45179189 127.89378384 -153.5625 109.5625 C-153.25957031 108.73032959 -152.95664063 107.89815918 -152.64453125 107.04077148 C-151.77988872 104.68704781 -150.89521972 102.34223662 -150 100 C-149.56558594 98.8553125 -149.13117188 97.710625 -148.68359375 96.53125 C-138.83418556 71.82646378 -122.16241564 49.13224933 -101 33 C-100.11441406 32.32195313 -99.22882813 31.64390625 -98.31640625 30.9453125 C-80.59503846 17.7250178 -62.0102531 9.36687488 -41 3 C-39.84371094 2.63519531 -38.68742187 2.27039063 -37.49609375 1.89453125 C-25.36297021 -1.339956 -12.44373167 -0.26255439 0 0 Z " fill="#7C7A7A" transform="translate(161,0)"/>
<path d="M0 0 C17.68515964 -0.79672083 33.19005763 0.29984672 50 6 C50.71575195 6.24024902 51.43150391 6.48049805 52.16894531 6.72802734 C71.32244302 13.35159373 88.76536404 24.14705892 103.9921875 37.38671875 C105.99898806 39.13028962 108.03882434 40.83654071 110.109375 42.50390625 C112.90646874 44.91923449 115.09473568 47.35092789 117.375 50.25 C120.06719074 53.64099566 122.79106276 56.84068387 125.8125 59.9375 C139.20397981 74.90602034 147.35958862 94.85585457 153.8125 113.625 C154.2297937 114.82177368 154.2297937 114.82177368 154.65551758 116.04272461 C159.14462825 129.67414229 160.445116 142.96131141 160.36076355 157.18554688 C160.36207526 158.857527 160.36470836 160.52950651 160.36853105 162.20148277 C160.37517634 166.74884682 160.36332649 171.29599519 160.34819686 175.84333181 C160.3351538 180.76470474 160.33963177 185.68606703 160.34190369 190.60745239 C160.34347123 199.11847784 160.33411655 207.6294339 160.31719017 216.14044189 C160.29273398 228.44568394 160.28498815 240.75089268 160.2812262 253.0561564 C160.27467207 273.02411022 160.25473916 292.99202714 160.22631836 312.95996094 C160.19875086 332.34863094 160.17753046 351.7372909 160.16479492 371.12597656 C160.16361267 372.92082953 160.16361267 372.92082953 160.16240653 374.75194216 C160.15849121 380.75520859 160.15470013 386.75847509 160.15097082 392.76174164 C160.11990726 442.50785326 160.06709984 492.25392482 160 542 C159.67 542 159.34 542 159 542 C158.99940291 541.17542124 158.99880582 540.35084249 158.99819064 539.50127649 C158.96223878 490.54939615 158.90551113 441.59757704 158.82207905 392.64575341 C158.81206248 386.758302 158.8022182 380.87085032 158.79248047 374.98339844 C158.7905391 373.81139167 158.78859772 372.6393849 158.78659752 371.43186277 C158.75563914 352.49469011 158.73861411 333.55752954 158.72680578 314.62033635 C158.71436221 295.16589264 158.68678879 275.71151205 158.64538693 256.25710821 C158.62034304 244.26817655 158.60687604 232.27934969 158.60857043 220.2903915 C158.60860035 212.05125691 158.593836 203.81222848 158.56783572 195.57313532 C158.55329527 190.83097164 158.54489497 186.08902563 158.55419731 181.34684372 C158.60158743 153.95485781 156.98104567 128.8521934 147 103 C146.72285156 102.27876953 146.44570313 101.55753906 146.16015625 100.81445312 C137.88979036 79.74282711 123.30444291 53.86962861 104 41 C104 40.34 104 39.68 104 39 C103.45214844 38.75507812 102.90429688 38.51015625 102.33984375 38.2578125 C99.49639769 36.72928223 97.10978567 34.85891041 94.5625 32.875 C66.96360867 11.88220372 34.5017637 2.00150257 0 1 C0 0.67 0 0.34 0 0 Z " fill="#858484" transform="translate(864,0)"/>
<path d="M0 0 C0.33 0 0.66 0 1 0 C1.16059359 43.25353841 1.28375553 86.50704211 1.35745731 129.76082014 C1.36621114 134.87960975 1.37527151 139.99839877 1.38452148 145.1171875 C1.38635766 146.1361483 1.38819383 147.15510909 1.39008565 148.20494749 C1.42045698 164.65448421 1.47559995 181.10384784 1.54006957 197.55328225 C1.60577603 214.46064253 1.64446313 231.36791281 1.65861946 248.27539551 C1.6681737 258.68911314 1.69823081 269.1023413 1.75541527 279.51590808 C1.79272143 286.67905932 1.80353278 293.84196148 1.79450964 301.00520258 C1.79007265 305.12410008 1.79635178 309.24214896 1.83443832 313.36089134 C2.1820692 352.94691007 -9.46948177 390.51191072 -34 422 C-34.42265137 422.5475293 -34.84530273 423.09505859 -35.28076172 423.65917969 C-40.41257331 430.26758819 -40.41257331 430.26758819 -43 433 C-43.66 433 -44.32 433 -45 433 C-45.23203125 433.56460937 -45.4640625 434.12921875 -45.703125 434.7109375 C-58.74836479 457.73657158 -96.20743356 470.82293091 -119.73925781 477.36572266 C-121.64323016 477.8999041 -123.53774553 478.46762877 -125.4296875 479.04296875 C-135.45258061 481.81553529 -145.69224241 481.28506775 -156 481 C-156 480.67 -156 480.34 -156 480 C-154.95585938 479.91363281 -153.91171875 479.82726562 -152.8359375 479.73828125 C-109.16364338 475.73326639 -68.05657423 458.78303608 -39.34912109 424.66503906 C-25.96899669 408.15174763 -16.87770136 390.25573927 -9.81201172 370.29296875 C-9.14429904 368.4074734 -8.45239422 366.53056254 -7.75390625 364.65625 C-0.49171466 343.6326292 -0.3993938 321.16907858 -0.45119452 299.19917285 C-0.45622407 295.16749531 -0.43795153 291.13590622 -0.42277527 287.10426331 C-0.3996632 280.15018457 -0.39070574 273.19620952 -0.39188385 266.24209404 C-0.39356584 256.18813652 -0.37308991 246.13431565 -0.34752855 236.08039487 C-0.30662543 219.76120416 -0.28318014 203.44203834 -0.27099609 187.12280273 C-0.25913557 171.28781753 -0.23887743 155.45287904 -0.20751953 139.61791992 C-0.20558343 138.63877947 -0.20364733 137.65963902 -0.20165256 136.65082764 C-0.19188672 131.73784971 -0.18195784 126.82487212 -0.17194796 121.91189468 C-0.08936226 81.27461897 -0.03522778 40.63734262 0 0 Z " fill="#858585" transform="translate(1023,543)"/>
<path d="M0 0 C0.33 0 0.66 0 1 0 C1.02505615 0.94093506 1.0501123 1.88187012 1.07592773 2.85131836 C1.29971586 11.141628 1.53946342 19.4311899 1.80496216 27.72027588 C1.9269277 31.54644378 2.03308987 35.37190309 2.11328125 39.19921875 C3.20587686 70.57232118 14.94809371 104.65392384 35 129 C35.42812988 129.52529297 35.85625977 130.05058594 36.29736328 130.59179688 C52.55116187 150.47209974 71.62453048 165.37428373 95 176 C96.04075684 176.47397217 96.04075684 176.47397217 97.10253906 176.95751953 C119.78539045 187.13090874 143.30213157 190.28732519 168 191 C168 191.33 168 191.66 168 192 C125.3069364 193.41801182 85.11148549 181.87584918 53.296875 152.140625 C51.06561017 150.0611469 48.76302227 148.09768441 46.4375 146.125 C41.32571042 141.56922964 37.1476154 136.43239862 33 131 C32.59104492 130.46600586 32.18208984 129.93201172 31.76074219 129.38183594 C17.63687106 110.77833825 8.32385247 89.72210183 3 67 C2.73123047 65.99807617 2.46246094 64.99615234 2.18554688 63.96386719 C-0.9099704 51.13570222 -0.32936837 38.17952461 -0.1875 25.0625 C-0.17242275 22.62565933 -0.15873974 20.18880962 -0.14648438 17.75195312 C-0.1137276 11.83443515 -0.06377055 5.91726083 0 0 Z " fill="#929192" transform="translate(0,832)"/>
<path d="M0 0 C0 0.33 0 0.66 0 1 C-0.70793701 1.03440186 -1.41587402 1.06880371 -2.14526367 1.10424805 C-48.54031265 3.52124236 -88.83736299 19.81642245 -120.34277344 54.64111328 C-146.12067869 84.28476831 -158.58649346 123.55778552 -159.31640625 162.3828125 C-159.33718735 163.32309296 -159.35796844 164.26337341 -159.37937927 165.23214722 C-159.44406432 168.19636685 -159.50337739 171.16066475 -159.5625 174.125 C-159.60576257 176.15104933 -159.64937914 178.17709113 -159.69335938 180.203125 C-159.79966087 185.13533921 -159.9011492 190.06763106 -160 195 C-160.33 195 -160.66 195 -161 195 C-161.10274575 187.37275921 -161.17202013 179.74570146 -161.21972656 172.11791992 C-161.23964737 169.53158907 -161.26679395 166.94530209 -161.30175781 164.35913086 C-161.5027771 149.09053325 -161.27483407 134.73690234 -157 120 C-156.7014209 118.96528564 -156.4028418 117.93057129 -156.09521484 116.86450195 C-155.31892546 114.39799223 -154.47201458 111.9825702 -153.5625 109.5625 C-153.25957031 108.73032959 -152.95664063 107.89815918 -152.64453125 107.04077148 C-151.77988872 104.68704781 -150.89521972 102.34223662 -150 100 C-149.56558594 98.8553125 -149.13117188 97.710625 -148.68359375 96.53125 C-138.83418556 71.82646378 -122.16241564 49.13224933 -101 33 C-100.11441406 32.32195313 -99.22882813 31.64390625 -98.31640625 30.9453125 C-80.59503846 17.7250178 -62.0102531 9.36687488 -41 3 C-39.84371094 2.63519531 -38.68742187 2.27039063 -37.49609375 1.89453125 C-25.36297021 -1.339956 -12.44373167 -0.26255439 0 0 Z " fill="#939192" transform="translate(161,0)"/>
<path d="M0 0 C0.33 0 0.66 0 1 0 C0.89271207 17.36784739 0.77994193 34.73564939 0.66066074 52.10341835 C0.60540294 60.16772662 0.55193328 68.23203932 0.50268555 76.29638672 C0.45975241 83.325969 0.41345162 90.35551969 0.36312145 97.38505304 C0.33659393 101.10648045 0.31174296 104.8279019 0.29092598 108.549366 C0.2676136 112.70564675 0.23678216 116.86183934 0.20532227 121.01806641 C0.1995668 122.24949371 0.19381134 123.48092102 0.18788147 124.74966431 C0.17809265 125.88540894 0.16830383 127.02115356 0.15821838 128.1913147 C0.15176583 129.17394602 0.14531328 130.15657734 0.1386652 131.16898537 C-0.00860091 134.1755977 -0.45033498 137.04262491 -1 140 C-1.33 140 -1.66 140 -2 140 C-1.99476318 138.78159424 -1.98952637 137.56318848 -1.98413086 136.30786133 C-1.9613561 130.47608617 -1.94764552 124.64430992 -1.9375 118.8125 C-1.93555634 117.73890228 -1.93361267 116.66530457 -1.93161011 115.55917358 C-1.91306509 100.74582691 -2.08635573 85.95132407 -2.48620605 71.14355469 C-3.12802633 47.32740136 -3.26240129 23.66032782 0 0 Z " fill="#C6E359" transform="translate(251,306)"/>
<path d="M0 0 C1.2332075 3.69962249 0.692181 5.91429615 0.0625 9.75 C-1.6037499 18.02176892 -1.6037499 18.02176892 0 26 C-0.11766296 28.49151318 -0.28822146 30.95394119 -0.5 33.4375 C-0.94773944 39.30354506 -0.96714551 44.81662049 -0.15625 50.66796875 C0 53 0 53 -0.48413086 55.20533752 C-1.09928866 58.53788504 -1.1119318 61.65683373 -1.09765625 65.04663086 C-1.09619598 65.73688354 -1.09473572 66.42713623 -1.0932312 67.13830566 C-1.08943729 68.63222409 -1.08333354 70.12613807 -1.07516479 71.62003899 C-1.06232285 73.99764275 -1.05586412 76.37519017 -1.05102539 78.75282288 C-1.0376973 84.66528211 -1.01365712 90.57768853 -0.98962402 96.4901123 C-0.96971886 101.47911355 -0.95414322 106.46809364 -0.94406128 111.45712471 C-0.93767722 113.77548673 -0.92516423 116.09376013 -0.91235352 118.41209412 C-0.88206452 127.32698524 -1.21739359 136.11257556 -2 145 C-2.33 145 -2.66 145 -3 145 C-3.04682376 127.97932497 -3.08203953 110.95867018 -3.10362434 93.93794537 C-3.11391514 86.03404773 -3.12793325 78.13019023 -3.15087891 70.22631836 C-3.17088028 63.33331979 -3.18373238 56.44035031 -3.18817699 49.54732352 C-3.190773 45.90114318 -3.1968284 42.255046 -3.21146011 38.60889244 C-3.22770241 34.52788049 -3.22797538 30.44701102 -3.22705078 26.3659668 C-3.23424133 25.17121735 -3.24143188 23.9764679 -3.24884033 22.74551392 C-3.2089662 6.4179324 -3.2089662 6.4179324 0 0 Z " fill="#C3E25A" transform="translate(776,544)"/>
<path d="M0 0 C0.33 0 0.66 0 1 0 C1.7577266 3.43076414 2.17087492 6.70219304 2.31640625 10.2109375 C2.35830078 11.2004541 2.40019531 12.1899707 2.44335938 13.20947266 C2.48267578 14.25409668 2.52199219 15.2987207 2.5625 16.375 C2.60568359 17.45700684 2.64886719 18.53901367 2.69335938 19.65380859 C2.94962688 26.46015138 3.03101559 33.23266982 2.96875 40.04296875 C3.03713006 48.70159381 3.5544764 57.35376134 4 66 C3.34 66 2.68 66 2 66 C2.22623047 67.42699219 2.22623047 67.42699219 2.45703125 68.8828125 C5.27529011 88.84506375 3.49668728 109.0081417 2 129 C1.67 129 1.34 129 1 129 C0.67 86.43 0.34 43.86 0 0 Z " fill="#C3E259" transform="translate(772,307)"/>
<path d="M0 0 C0.66 0 1.32 0 2 0 C0.27297677 5.4689069 -1.69434154 10.75698044 -3.875 16.0625 C-12.03670774 36.23956163 -15.90709952 56.61124594 -16.31640625 78.3828125 C-16.33718735 79.32309296 -16.35796844 80.26337341 -16.37937927 81.23214722 C-16.44406432 84.19636685 -16.50337739 87.16066475 -16.5625 90.125 C-16.60576257 92.15104933 -16.64937914 94.17709113 -16.69335938 96.203125 C-16.79966087 101.13533921 -16.9011492 106.06763106 -17 111 C-17.33 111 -17.66 111 -18 111 C-18.10274575 103.37275921 -18.17202013 95.74570146 -18.21972656 88.11791992 C-18.23964737 85.53158907 -18.26679395 82.94530209 -18.30175781 80.35913086 C-18.5027771 65.09053325 -18.27483407 50.73690234 -14 36 C-13.7014209 34.96528564 -13.4028418 33.93057129 -13.09521484 32.86450195 C-12.31894073 30.39804075 -11.47162531 27.98265787 -10.5625 25.5625 C-10.2631958 24.73685547 -9.9638916 23.91121094 -9.65551758 23.06054688 C-6.78896319 15.23250099 -3.80032162 7.42868299 0 0 Z " fill="#8F8E8E" transform="translate(18,84)"/>
<path d="M0 0 C3.23207144 2.66743245 4.63855853 6.11312404 6.25 9.875 C6.54938477 10.57044922 6.84876953 11.26589844 7.15722656 11.98242188 C9.57845768 17.74389154 11.72737131 23.5877845 13.75 29.5 C14.03133789 30.30421387 14.31267578 31.10842773 14.60253906 31.93701172 C19.48684866 46.65688874 20.42055847 60.64452522 20.1875 76 C20.17240252 77.75780083 20.15872321 79.51561444 20.14648438 81.2734375 C20.11393333 85.51594953 20.06244141 89.757827 20 94 C19.67 94 19.34 94 19 94 C18.9906543 93.21689453 18.98130859 92.43378906 18.97167969 91.62695312 C18.53061795 61.99798232 14.77559671 34.99428229 2.13354492 7.8828125 C0.81704206 5.04598562 0 3.17289313 0 0 Z " fill="#898889" transform="translate(1004,84)"/>
<path d="M0 0 C1.65 0 3.3 0 5 0 C5 0.33 5 0.66 5 1 C3.35 1 1.7 1 0 1 C0 0.67 0 0.34 0 0 Z M-25 1 C-16.75 1 -8.5 1 0 1 C0 1.33 0 1.66 0 2 C-7.92 2 -15.84 2 -24 2 C-24 17.18 -24 32.36 -24 48 C-11.79 48 0.42 48 13 48 C13 48.33 13 48.66 13 49 C8.91682366 49.17066188 4.83343988 49.3357747 0.75 49.5 C-0.95929687 49.57154297 -0.95929687 49.57154297 -2.703125 49.64453125 C-10.14013973 49.94032161 -17.55732726 50.06108897 -25 50 C-26.20895702 47.58208596 -26.08661844 46.15503275 -26.02172852 43.45849609 C-25.99158409 42.04725967 -25.99158409 42.04725967 -25.96083069 40.60751343 C-25.93379562 39.58976837 -25.90676056 38.57202332 -25.87890625 37.5234375 C-25.85529526 36.48305328 -25.83168427 35.44266907 -25.80735779 34.37075806 C-25.73061424 31.03870356 -25.64663584 27.70687525 -25.5625 24.375 C-25.50929003 22.11980284 -25.45654956 19.86459455 -25.40429688 17.609375 C-25.27586957 12.07273138 -25.13767001 6.53645248 -25 1 Z " fill="#C2DF58" transform="translate(699,700)"/>
<path d="M0 0 C0.33 0 0.66 0 1 0 C1.02505615 0.94093506 1.0501123 1.88187012 1.07592773 2.85131836 C1.29971586 11.141628 1.53946342 19.4311899 1.80496216 27.72027588 C1.9269277 31.54644378 2.03308987 35.37190309 2.11328125 39.19921875 C2.44539466 48.73561817 4.20659067 57.69714023 6.36035156 66.98291016 C6.58432617 67.96437012 6.80830078 68.94583008 7.0390625 69.95703125 C7.24740723 70.83335205 7.45575195 71.70967285 7.67041016 72.61254883 C8.01131794 75.08198381 7.77990466 76.65382649 7 79 C-0.93123044 61.82607581 -0.52228162 43.29083689 -0.25 24.75 C-0.22987753 22.33595254 -0.21163706 19.92188863 -0.1953125 17.5078125 C-0.15183509 11.67150787 -0.08539112 5.83583432 0 0 Z " fill="#8A8889" transform="translate(0,832)"/>
<path d="M0 0 C1.28197266 -0.00386719 1.28197266 -0.00386719 2.58984375 -0.0078125 C5.0625 0.125 5.0625 0.125 6.89453125 0.59765625 C10.15901444 1.39171973 13.46976822 1.49477161 16.8125 1.6875 C17.50988281 1.73068359 18.20726562 1.77386719 18.92578125 1.81835938 C20.63781922 1.92389596 22.35013561 2.0248991 24.0625 2.125 C24.0625 2.455 24.0625 2.785 24.0625 3.125 C13.8325 3.125 3.6025 3.125 -6.9375 3.125 C-6.9375 17.315 -6.9375 31.505 -6.9375 46.125 C-7.2675 46.125 -7.5975 46.125 -7.9375 46.125 C-7.9375 31.275 -7.9375 16.425 -7.9375 1.125 C-5.0043642 0.14728807 -3.05571006 -0.00919011 0 0 Z " fill="#D6F365" transform="translate(682.9375,249.875)"/>
<path d="M0 0 C0.33 0 0.66 0 1 0 C1.02792326 1.45821481 1.04679418 2.91660243 1.0625 4.375 C1.07410156 5.18710938 1.08570313 5.99921875 1.09765625 6.8359375 C1.0169826 9.44976363 0.80259212 11.95404917 0.51367188 14.54882812 C-0.02458844 19.82990319 -0.21666748 25.07757565 -0.31640625 30.3828125 C-0.33718735 31.32309296 -0.35796844 32.26337341 -0.37937927 33.23214722 C-0.44406432 36.19636685 -0.50337739 39.16066475 -0.5625 42.125 C-0.60576257 44.15104933 -0.64937914 46.17709113 -0.69335938 48.203125 C-0.79966087 53.13533921 -0.9011492 58.06763106 -1 63 C-1.33 63 -1.66 63 -2 63 C-2.05080046 55.1529416 -2.0857759 47.30592578 -2.10986328 39.45874023 C-2.11877541 36.79036743 -2.13354451 34.12220998 -2.15087891 31.45385742 C-2.17519702 27.61374195 -2.18649932 23.7737723 -2.1953125 19.93359375 C-2.20563507 18.74479111 -2.21595764 17.55598846 -2.22659302 16.3311615 C-2.22738014 10.49199028 -2.01917144 5.5020675 0 0 Z " fill="#8A8888" transform="translate(2,132)"/>
<path d="M0 0 C0.33 0 0.66 0 1 0 C1 14.85 1 29.7 1 45 C9.00235393 44.96055523 9.00235393 44.96055523 17.00463867 44.90991211 C18.50861206 44.90616577 18.50861206 44.90616577 20.04296875 44.90234375 C21.06414795 44.89710693 22.08532715 44.89187012 23.13745117 44.88647461 C25.86901616 44.99480533 28.34169374 45.38293132 31 46 C31 46.33 31 46.66 31 47 C26.62176083 47.04938149 22.24366854 47.0857104 17.86523438 47.10986328 C16.3752968 47.11993043 14.88537903 47.13358518 13.39550781 47.15087891 C11.25580972 47.17509653 9.11637247 47.18647564 6.9765625 47.1953125 C5.68830566 47.20578613 4.40004883 47.21625977 3.07275391 47.22705078 C0 47 0 47 -2 45 C-1.34 45 -0.68 45 0 45 C0 30.15 0 15.3 0 0 Z " fill="#C6E35B" transform="translate(674,251)"/>
<path d="M0 0 C3.31125715 2.70102547 4.68537771 6.29095506 6.3125 10.125 C6.6115625 10.82206055 6.910625 11.51912109 7.21875 12.23730469 C9.45079018 17.52309605 11.53365136 22.85996718 13.5 28.25 C13.76723877 28.96430176 14.03447754 29.67860352 14.30981445 30.41455078 C16.48681938 36.56615524 16.48681938 36.56615524 15 40 C13.29623139 37.44434708 12.43377375 35.66960056 11.484375 32.82421875 C11.20537354 32.00236084 10.92637207 31.18050293 10.63891602 30.33374023 C10.34557373 29.46048096 10.05223145 28.58722168 9.75 27.6875 C7.18424942 20.16686864 4.35911709 12.88255215 1.06640625 5.65234375 C0 3 0 3 0 0 Z " fill="#8F8E8E" transform="translate(1004,84)"/>
<path d="M0 0 C3.3 0 6.6 0 10 0 C10 0.33 10 0.66 10 1 C6.7 1 3.4 1 0 1 C0 0.67 0 0.34 0 0 Z " fill="#DADBD5" transform="translate(415,694)"/>
<path d="M0 0 C0.66 1.32 1.32 2.64 2 4 C1.34 3.67 0.68 3.34 0 3 C0 2.01 0 1.02 0 0 Z " fill="#C1DD5B" transform="translate(251,700)"/>
<path d="M0 0 C1.65 0 3.3 0 5 0 C5 0.33 5 0.66 5 1 C3.35 1 1.7 1 0 1 C0 0.67 0 0.34 0 0 Z " fill="#DBDCD6" transform="translate(408,694)"/>
<path d="M0 0 C0.33 0 0.66 0 1 0 C1 1.65 1 3.3 1 5 C0.67 5 0.34 5 0 5 C0 3.35 0 1.7 0 0 Z " fill="#BDD85C" transform="translate(820,483)"/>
<path d="M0 0 C4 1 4 1 4 1 Z " fill="#D9DBCF" transform="translate(398,694)"/>
<path d="M0 0 C1 4 1 4 1 4 Z " fill="#BDD65C" transform="translate(820,476)"/>
<path d="M0 0 C3 1 3 1 3 1 Z " fill="#878688" transform="translate(860,1023)"/>
<path d="M0 0 C3 1 3 1 3 1 Z " fill="#D8D8D3" transform="translate(439,694)"/>
<path d="" fill="#CEE865" transform="translate(0,0)"/>
<path d="M0 0 C3 1 3 1 3 1 Z " fill="#C1DC5C" transform="translate(211,526)"/>
<path d="" fill="#BDDA5A" transform="translate(0,0)"/>
<path d="M0 0 C3 1 3 1 3 1 Z " fill="#C6E15D" transform="translate(804,472)"/>
<path d="M0 0 C3 1 3 1 3 1 Z " fill="#C7E35F" transform="translate(217,472)"/>
<path d="" fill="#CEE966" transform="translate(0,0)"/>
<path d="" fill="#D0E966" transform="translate(0,0)"/>
<path d="M0 0 C3 1 3 1 3 1 Z " fill="#CDE860" transform="translate(309,303)"/>
<path d="M0 0 C0.33 0.66 0.66 1.32 1 2 C0.34 1.67 -0.32 1.34 -1 1 C-0.67 0.67 -0.34 0.34 0 0 Z " fill="#C0DA59" transform="translate(735,256)"/>
<path d="M0 0 C2 1 2 1 2 1 Z " fill="#939295" transform="translate(893,1023)"/>
<path d="M0 0 C2 1 2 1 2 1 Z " fill="#D7D7D2" transform="translate(443,694)"/>
<path d="M0 0 C2 1 2 1 2 1 Z " fill="#D9D8D4" transform="translate(435,694)"/>
<path d="M0 0 C2 1 2 1 2 1 Z " fill="#D9DAD6" transform="translate(427,694)"/>
<path d="M0 0 C2 1 2 1 2 1 Z " fill="#DADBD1" transform="translate(403,694)"/>
<path d="M0 0 C2 1 2 1 2 1 Z " fill="#D8DACD" transform="translate(395,694)"/>
<path d="" fill="#CEE863" transform="translate(0,0)"/>
<path d="" fill="#C2DE5C" transform="translate(0,0)"/>
<path d="" fill="#373832" transform="translate(0,0)"/>
<path d="" fill="#BEDB57" transform="translate(0,0)"/>
<path d="" fill="#BFDC58" transform="translate(0,0)"/>
<path d="" fill="#C1DD5A" transform="translate(0,0)"/>
<path d="" fill="#C0DB5A" transform="translate(0,0)"/>
<path d="" fill="#C2DD5B" transform="translate(0,0)"/>
<path d="" fill="#C2DC5C" transform="translate(0,0)"/>
<path d="" fill="#BFD661" transform="translate(0,0)"/>
<path d="" fill="#C2DE5A" transform="translate(0,0)"/>
<path d="" fill="#C5E064" transform="translate(0,0)"/>
<path d="" fill="#C1DE5B" transform="translate(0,0)"/>
<path d="" fill="#CDE36C" transform="translate(0,0)"/>
<path d="" fill="#CCE862" transform="translate(0,0)"/>
<path d="" fill="#C8E262" transform="translate(0,0)"/>
<path d="" fill="#CDE66C" transform="translate(0,0)"/>
<path d="" fill="#CFE669" transform="translate(0,0)"/>
<path d="" fill="#CDE85F" transform="translate(0,0)"/>
<path d="" fill="#CDE963" transform="translate(0,0)"/>
<path d="" fill="#C2DF5C" transform="translate(0,0)"/>
<path d="" fill="#D0D2CE" transform="translate(0,0)"/>
<path d="" fill="#D2D4CF" transform="translate(0,0)"/>
<path d="" fill="#D6D7D1" transform="translate(0,0)"/>
<path d="" fill="#DBDBD5" transform="translate(0,0)"/>
<path d="" fill="#D8DAD4" transform="translate(0,0)"/>
<path d="" fill="#D9DDD3" transform="translate(0,0)"/>
<path d="" fill="#C3E15E" transform="translate(0,0)"/>
<path d="" fill="#CDEB61" transform="translate(0,0)"/>
<path d="" fill="#CCE963" transform="translate(0,0)"/>
<path d="" fill="#CDE764" transform="translate(0,0)"/>
<path d="" fill="#CEE962" transform="translate(0,0)"/>
<path d="" fill="#CEE866" transform="translate(0,0)"/>
<path d="" fill="#CFE866" transform="translate(0,0)"/>
<path d="" fill="#CDE865" transform="translate(0,0)"/>
<path d="" fill="#CEE863" transform="translate(0,0)"/>
<path d="" fill="#CEE965" transform="translate(0,0)"/>
<path d="" fill="#CFE866" transform="translate(0,0)"/>
<path d="" fill="#CCE761" transform="translate(0,0)"/>
<path d="" fill="#CDE866" transform="translate(0,0)"/>
<path d="" fill="#E3E5E4" transform="translate(0,0)"/>
<path d="" fill="#C9E560" transform="translate(0,0)"/>
<path d="" fill="#B9D65D" transform="translate(0,0)"/>
<path d="" fill="#C3DE5D" transform="translate(0,0)"/>
<path d="" fill="#C5E15E" transform="translate(0,0)"/>
<path d="" fill="#C6E260" transform="translate(0,0)"/>
<path d="" fill="#C6E25F" transform="translate(0,0)"/>
<path d="" fill="#C0DA5B" transform="translate(0,0)"/>
<path d="" fill="#BDD65C" transform="translate(0,0)"/>
<path d="" fill="#BBD85C" transform="translate(0,0)"/>
<path d="" fill="#BFD95C" transform="translate(0,0)"/>
<path d="" fill="#BED95C" transform="translate(0,0)"/>
<path d="" fill="#BEDA5D" transform="translate(0,0)"/>
<path d="" fill="#BFDB5E" transform="translate(0,0)"/>
<path d="" fill="#BEDA5D" transform="translate(0,0)"/>
<path d="" fill="#C0DC5D" transform="translate(0,0)"/>
<path d="" fill="#CCEB61" transform="translate(0,0)"/>
<path d="" fill="#CCE861" transform="translate(0,0)"/>
<path d="" fill="#CFE964" transform="translate(0,0)"/>
<path d="" fill="#C9E25C" transform="translate(0,0)"/>
<path d="" fill="#CCE965" transform="translate(0,0)"/>
<path d="" fill="#BFDB5C" transform="translate(0,0)"/>
<path d="" fill="#BCDA5D" transform="translate(0,0)"/>
<path d="" fill="#E8E7E8" transform="translate(0,0)"/>
<path d="" fill="#EAE8EA" transform="translate(0,0)"/>
<path d="" fill="#E8E9EA" transform="translate(0,0)"/>
<path d="" fill="#E7E8E9" transform="translate(0,0)"/>
<path d="" fill="#E7E7E8" transform="translate(0,0)"/>
<path d="" fill="#CAE660" transform="translate(0,0)"/>
<path d="" fill="#CAE660" transform="translate(0,0)"/>
<path d="" fill="#CBE863" transform="translate(0,0)"/>
<path d="" fill="#CEE768" transform="translate(0,0)"/>
<path d="" fill="#D0E964" transform="translate(0,0)"/>
<path d="" fill="#CEE965" transform="translate(0,0)"/>
<path d="" fill="#CFE867" transform="translate(0,0)"/>
<path d="" fill="#CFE966" transform="translate(0,0)"/>
<path d="" fill="#CFEB65" transform="translate(0,0)"/>
<path d="" fill="#D1EA65" transform="translate(0,0)"/>
<path d="" fill="#D0E864" transform="translate(0,0)"/>
<path d="" fill="#D0E966" transform="translate(0,0)"/>
<path d="" fill="#C5E05E" transform="translate(0,0)"/>
<path d="" fill="#C5DF5C" transform="translate(0,0)"/>
<path d="" fill="#C2DD5C" transform="translate(0,0)"/>
<path d="" fill="#CFEA63" transform="translate(0,0)"/>
<path d="" fill="#C1DF5F" transform="translate(0,0)"/>
<path d="" fill="#C1DC5C" transform="translate(0,0)"/>
<path d="" fill="#CDE963" transform="translate(0,0)"/>
<path d="" fill="#CFE66E" transform="translate(0,0)"/>
<path d="" fill="#C1DC5D" transform="translate(0,0)"/>
<path d="" fill="#C0DD5B" transform="translate(0,0)"/>
<path d="" fill="#C2DC5B" transform="translate(0,0)"/>
<path d="" fill="#C3DE5B" transform="translate(0,0)"/>
<path d="" fill="#C1DC5A" transform="translate(0,0)"/>
<path d="" fill="#C2DB5C" transform="translate(0,0)"/>
</svg>
